<svg width="512" height="512" viewBox="222.55 77.58 150 150" role="img" xmlns="http://www.w3.org/2000/svg">
  <title>Modus Emblem</title>
  <desc>Modus 'M' amblemi</desc>
  <style>
    .logo { fill: #2d3f50; }
    @media (prefers-color-scheme: dark) { .logo { fill: #ffffff; } }
  </style>
  <g class="logo" transform="translate(0,369) scale(0.03333,-0.03333)" stroke="none">
    <path d="M7936 8422 c-3 -5 -6 -875 -8 -1933 l-3 -1924 313 -5 c172 -3 322 -2 333 2 19 7 19 32 19 1373 0 1196 2 1365 15 1365 8 0 22 -15 31 -32 9 -18 29 -51 44 -73 15 -22 37 -56 47 -75 11 -19 34 -57 50 -85 96 -158 283 -476 283 -479 0 -2 31 -53 68 -113 37 -59 97 -157 132 -216 66 -113 95 -143 173 -177 36 -16 68 -21 133 -21 78 0 94 3 159 34 39 19 87 51 107 71 44 45 98 145 98 181 0 25 -77 162 -151 272 -16 23 -29 45 -29 49 0 9 -175 297 -212 348 -15 21 -28 43 -28 48 0 5 -13 29 -30 53 -16 24 -30 46 -30 50 0 4 -13 25 -28 48 -26 38 -164 267 -238 392 -40 69 -24 43 -271 452 -122 203 -230 376 -241 386 -17 15 -52 17 -375 17 -196 0 -358 -4 -361 -8z"/>
  </g>
</svg>
