<svg width="677" height="369" viewBox="0 0 677 369" xmlns="http://www.w3.org/2000/svg">
  <g fill="#2d3f50" transform="translate(0,369) scale(0.03333,-0.03333)">
    <path d="M11365 8410 c-208 -53 -383 -186 -497 -377 -25 -43 -76 -148 -113
-233 -36 -85 -75 -173 -86 -195 -19 -39 -47 -106 -116 -275 -19 -47 -38 -89
-42 -95 -4 -5 -18 -35 -31 -65 -12 -30 -33 -77 -45 -105 -38 -82 -115 -264
-115 -271 0 -3 -20 -46 -45 -95 -25 -49 -45 -93 -45 -98 0 -5 -16 -44 -35 -85
-19 -42 -35 -79 -35 -82 0 -5 -59 -141 -98 -224 -100 -215 -325 -357 -529
-333 -49 5 -53 4 -53 -15 0 -11 5 -24 10 -27 6 -4 22 -29 35 -56 50 -99 167
-275 203 -307 108 -96 247 -137 383 -113 90 16 127 32 200 88 57 43 108 110
147 193 27 58 124 282 167 385 19 44 45 104 59 132 14 29 26 57 26 63 0 5 16
43 35 84 19 41 46 103 59 138 48 126 99 247 132 310 8 14 14 31 14 36 0 6 15
43 34 84 18 40 37 84 41 98 4 14 22 59 40 100 18 41 40 111 49 155 10 44 24
105 31 135 7 30 21 91 30 135 20 92 69 251 95 310 10 23 43 66 72 97 179 190
486 152 605 -74 l28 -53 3 -404 c2 -222 -1 -408 -6 -413 -5 -5 -42 -4 -84 2
-71 10 -91 9 -243 -12 -19 -3 -20 4 -25 272 -5 264 -6 276 -28 312 -48 77
-161 79 -232 3 l-25 -27 -3 -371 -3 -370 -27 -31 c-64 -74 -120 -183 -156
-307 -45 -155 4 -375 116 -525 26 -35 52 -73 58 -83 6 -13 10 -173 10 -454 0
-241 4 -457 10 -486 15 -78 54 -152 119 -222 70 -77 139 -114 261 -141 95 -21
125 -19 248 19 74 23 91 33 155 93 86 80 140 178 157 281 5 36 10 206 10 377
0 309 0 312 -21 312 -11 0 -35 -11 -52 -24 -18 -13 -75 -40 -127 -61 -52 -20
-96 -38 -98 -40 -2 -2 -6 -126 -9 -277 -5 -307 -8 -320 -76 -369 -73 -53 -187
-34 -245 41 -50 65 -53 92 -50 440 l3 325 35 -2 c19 -1 73 -5 119 -9 199 -16
407 73 545 234 61 71 129 212 151 316 38 171 -12 373 -130 526 l-50 65 4 460
c3 463 -4 598 -34 675 -73 191 -137 287 -250 376 -60 48 -191 111 -275 134
-98 26 -265 26 -365 0z m610 -1765 c70 -36 148 -118 183 -192 23 -51 26 -71
27 -163 0 -99 -2 -109 -33 -172 -62 -126 -174 -197 -323 -206 -141 -8 -259 47
-337 156 -58 81 -66 107 -66 222 -1 92 2 111 23 150 43 81 81 129 134 169 74
56 132 72 244 67 77 -3 101 -8 148 -31z"/>
  </g>
</svg>